<svg width="85" height="85" viewBox="0 0 85 85" fill="none" xmlns="http://www.w3.org/2000/svg">
<g clip-path="url(#clip0_6_62)">
<path d="M45.2079 14.3608C44.0838 9.44275 49.4141 5.66877 54.9035 8.25961C67.831 14.3608 60.3294 23.4944 55.6924 22.5107C51.0554 21.5271 46.3321 19.2789 45.2079 14.3608Z" fill="url(#paint0_linear_6_62)"/>
<path d="M48.3375 45.3586C42.3001 48.2592 41.4193 48.1038 28.1032 37.2087C8.00938 20.7683 26.9791 5.7331 47.3539 13.7425C69.4149 23.4381 62.0241 38.7845 48.3375 45.3586Z" fill="url(#paint1_linear_6_62)"/>
<path d="M48.8998 56.8811C46.839 61.3777 44.2158 63.6259 42.155 63.6259C40.0942 63.6259 37.4711 61.3777 35.4103 56.8811V51.2605C35.4103 51.2605 34.4932 51.2886 33.8646 51.2605C27.291 50.9795 25.0944 40.4051 26.1261 29.8284C26.8815 22.0826 33.443 32.7124 44.1223 25.265C43.7007 33.4149 47.2136 32.5719 48.7593 31.5882C55.7851 28.3564 55.9256 41.5649 48.9816 40.5414C48.9833 40.6819 48.956 46.1285 48.8998 56.8811Z" fill="url(#paint2_linear_6_62)"/>
<path d="M35.41 51.2601C37.9393 51.0727 41.0901 49.6582 44.8623 47.0165C43.7063 50.9972 40.5555 53.3485 35.41 54.0704V51.2601Z" fill="#FF9768"/>
<path d="M33.0865 58.5158C33.0865 58.5158 33.5105 55.5883 34.5048 55.3376C35.4991 55.0869 41.3103 55.0566 41.3154 56.1807C41.3154 56.387 41.5155 58.5976 42.1781 58.5976C42.8408 58.5976 43.0111 56.3858 43.0122 56.1807C43.0176 55.0566 48.7951 55.0998 49.8228 55.3376C50.8505 55.5753 51.2369 58.5194 51.2369 58.5194C51.2369 58.5194 66.4127 65.6652 68.0098 68.7156C69.3837 71.3385 70.4141 77.4276 71.1011 86.9827H13.2085C13.8955 77.4276 14.926 71.3385 16.2999 68.7156C17.897 65.6666 33.0865 58.5158 33.0865 58.5158Z" fill="url(#paint3_linear_6_62)"/>
<path d="M41.0306 77.6774C41.0306 77.4551 41.0966 77.2378 41.2201 77.0529C41.3436 76.868 41.5192 76.724 41.7246 76.6389C41.93 76.5538 42.156 76.5315 42.3741 76.5749C42.5921 76.6183 42.7924 76.7253 42.9496 76.8826C43.1069 77.0398 43.2139 77.2401 43.2573 77.4581C43.3007 77.6762 43.2784 77.9022 43.1933 78.1076C43.1082 78.313 42.9642 78.4886 42.7793 78.6121C42.5944 78.7356 42.3771 78.8016 42.1548 78.8016C41.8566 78.8016 41.5707 78.6831 41.3599 78.4723C41.1491 78.2615 41.0306 77.9756 41.0306 77.6774ZM41.0306 72.0568C41.0306 71.8345 41.0966 71.6171 41.2201 71.4323C41.3436 71.2474 41.5192 71.1033 41.7246 71.0182C41.93 70.9331 42.156 70.9109 42.3741 70.9543C42.5921 70.9976 42.7924 71.1047 42.9496 71.2619C43.1069 71.4191 43.2139 71.6194 43.2573 71.8375C43.3007 72.0555 43.2784 72.2816 43.1933 72.487C43.1082 72.6924 42.9642 72.8679 42.7793 72.9915C42.5944 73.115 42.3771 73.1809 42.1548 73.1809C41.8566 73.1809 41.5707 73.0625 41.3599 72.8517C41.1491 72.6408 41.0306 72.3549 41.0306 72.0568ZM41.0306 66.4361C41.0306 66.2138 41.0966 65.9965 41.2201 65.8116C41.3436 65.6267 41.5192 65.4827 41.7246 65.3976C41.93 65.3125 42.156 65.2902 42.3741 65.3336C42.5921 65.377 42.7924 65.484 42.9496 65.6413C43.1069 65.7985 43.2139 65.9988 43.2573 66.2168C43.3007 66.4349 43.2784 66.6609 43.1933 66.8663C43.1082 67.0717 42.9642 67.2473 42.7793 67.3708C42.5944 67.4943 42.3771 67.5603 42.1548 67.5603C41.8566 67.5603 41.5707 67.4418 41.3599 67.231C41.1491 67.0202 41.0306 66.7343 41.0306 66.4361V66.4361Z" fill="#664F4D"/>
<path d="M45.1309 22.7154C40.6344 33.9566 43.1637 39.4368 46.6766 46.041C50.1895 52.6453 45.8335 58.828 45.8335 58.828C45.8335 58.828 50.8921 55.5961 50.8921 48.4298C50.8921 41.2635 45.8335 36.767 50.049 30.8653C54.2645 24.9636 49.6274 11.4741 45.1309 22.7154Z" fill="url(#paint4_linear_6_62)"/>
</g>
<defs>
<linearGradient id="paint0_linear_6_62" x1="53.5823" y1="7.41797" x2="53.5823" y2="22.5841" gradientUnits="userSpaceOnUse">
<stop stop-color="#1D0024"/>
<stop offset="1" stop-color="#100014"/>
</linearGradient>
<linearGradient id="paint1_linear_6_62" x1="40.4529" y1="11.5244" x2="40.4529" y2="46.956" gradientUnits="userSpaceOnUse">
<stop stop-color="#1D0024"/>
<stop offset="1" stop-color="#100014"/>
</linearGradient>
<linearGradient id="paint2_linear_6_62" x1="39.9967" y1="25.265" x2="39.9967" y2="63.6259" gradientUnits="userSpaceOnUse">
<stop stop-color="#F7B186"/>
<stop offset="1" stop-color="#FFC299"/>
</linearGradient>
<linearGradient id="paint3_linear_6_62" x1="42.1548" y1="86.9827" x2="42.1548" y2="55.1949" gradientUnits="userSpaceOnUse">
<stop stop-color="#FCF2EB"/>
<stop offset="1" stop-color="#FFF9F5"/>
</linearGradient>
<linearGradient id="paint4_linear_6_62" x1="47.2111" y1="18.3796" x2="47.2111" y2="58.828" gradientUnits="userSpaceOnUse">
<stop stop-color="#1D0024"/>
<stop offset="1" stop-color="#100014"/>
</linearGradient>
<clipPath id="clip0_6_62">
<rect y="0.393555" width="84.3097" height="84.3097" rx="42.1548" fill="white"/>
</clipPath>
</defs>
</svg>
