<svg width="109" height="114" viewBox="0 0 109 114" fill="none" xmlns="http://www.w3.org/2000/svg">
<g filter="url(#filter0_d_2_163)">
<g clip-path="url(#clip0_2_163)">
<path d="M34.4644 75.5222C41.0643 80.322 47.6646 84.1622 54.2644 84.1622C60.8643 84.1622 67.4646 80.322 74.0644 75.5222C68.6244 73.8662 65.8644 71.3942 65.7844 68.1062C65.7844 67.5201 65.7888 66.6878 65.7927 65.125C65.7927 64.8768 65.7933 64.6227 65.7945 64.3625C65.8053 60.1721 65.823 54.6425 65.8478 49.0265C71.0073 42.3388 69.1119 34.4984 67.4952 34.6938C65.513 34.935 48.3399 18.6386 45.0459 17.803C41.7519 16.9674 33.3844 19.6649 31.9444 27.1799C30.5044 34.6949 29.9025 53.6374 35.3644 61.1999C36.9187 63.352 39.3667 64.1938 42.7084 63.7253C42.7131 65.2982 42.7225 66.1809 42.7444 67.9622C42.7016 71.3998 39.9418 73.868 34.4644 75.5222Z" fill="url(#paint0_linear_2_163)"/>
<path d="M42.7444 63.72C50.6644 62.82 55.7044 59.4 55.7044 59.4C55.7044 59.4 49.9444 66.6 42.7444 68.04V63.72Z" fill="#FC9F6A"/>
<path d="M68.4845 49.14C70.9649 43.1748 80.9045 31.0259 72.3365 23.4659C69.4565 9.4259 53.5445 10.98 42.9245 14.22C35.7867 16.3977 30.3964 20.7 29.2444 17.46C22.0444 23.4659 25.6502 29.34 30.3964 31.0259C34.7042 32.5559 41.9885 34.0859 54.3746 32.6459C56.5872 32.3885 56.1239 39.1648 57.3061 39.8974C59.0798 40.9965 60.4565 34.0859 65.3193 36.1609C70.1822 38.236 67.2965 47.8573 62.0765 47.8573C60.2765 47.8573 59.3765 52.8063 64.2365 55.1463C67.7645 56.88 66.8727 53.0161 68.4845 49.14Z" fill="url(#paint1_linear_2_163)"/>
<path d="M92.0644 86.5108C95.4916 93.4794 97.4644 109.551 97.4644 109.551H11.0645C11.0645 109.551 13.038 93.4776 16.4645 86.5108C19.8909 79.5441 39.9005 73.0825 39.9005 73.0825C50.9571 77.4 57.7233 77.4 68.618 73.08C68.618 73.08 88.6372 79.5423 92.0644 86.5108Z" fill="url(#paint2_linear_2_163)"/>
<path d="M56.7845 75.5999L58.5845 108.72H49.9445L51.7445 75.5999C51.7445 75.5999 53.4246 73.7999 54.2645 73.7999C55.1043 73.7999 56.7845 75.5999 56.7845 75.5999Z" fill="url(#paint3_linear_2_163)"/>
<path d="M57.1944 82.3291L51.5334 79.0581L51.7444 75.5999C52.8645 74.3999 53.7045 73.7999 54.2644 73.7999C54.8243 73.7999 55.6643 74.3999 56.7844 75.5999L57.1948 82.3291H57.1944Z" fill="#645050"/>
<path d="M54.2644 73.7971L50.6644 80.28L39.5044 73.44L42.7444 68.76L54.2644 73.0156L65.7844 68.76L69.0244 73.44L57.8644 80.28L54.2644 73.7971Z" fill="white"/>
</g>
</g>
<defs>
<filter id="filter0_d_2_163" x="-5.1356" y="-5.4" width="118.8" height="118.8" filterUnits="userSpaceOnUse" color-interpolation-filters="sRGB">
<feFlood flood-opacity="0" result="BackgroundImageFix"/>
<feColorMatrix in="SourceAlpha" type="matrix" values="0 0 0 0 0 0 0 0 0 0 0 0 0 0 0 0 0 0 127 0" result="hardAlpha"/>
<feOffset/>
<feGaussianBlur stdDeviation="2.7"/>
<feColorMatrix type="matrix" values="0 0 0 0 0 0 0 0 0 0 0 0 0 0 0 0 0 0 0.25 0"/>
<feBlend mode="normal" in2="BackgroundImageFix" result="effect1_dropShadow_2_163"/>
<feBlend mode="normal" in="SourceGraphic" in2="effect1_dropShadow_2_163" result="shape"/>
</filter>
<linearGradient id="paint0_linear_2_163" x1="52.5082" y1="17.6569" x2="52.5082" y2="84.1622" gradientUnits="userSpaceOnUse">
<stop stop-color="#F7B186"/>
<stop offset="1" stop-color="#FFC299"/>
</linearGradient>
<linearGradient id="paint1_linear_2_163" x1="50.463" y1="12.0197" x2="50.463" y2="55.5726" gradientUnits="userSpaceOnUse">
<stop stop-color="#1D0024"/>
<stop offset="1" stop-color="#100014"/>
</linearGradient>
<linearGradient id="paint2_linear_2_163" x1="54.2645" y1="73.08" x2="54.2645" y2="109.551" gradientUnits="userSpaceOnUse">
<stop stop-color="#1D0024"/>
<stop offset="1" stop-color="#100014"/>
</linearGradient>
<linearGradient id="paint3_linear_2_163" x1="54.2645" y1="73.7999" x2="54.2645" y2="108.72" gradientUnits="userSpaceOnUse">
<stop stop-color="#806A6A"/>
<stop offset="1" stop-color="#665654"/>
</linearGradient>
<clipPath id="clip0_2_163">
<rect x="0.264404" width="108" height="108" rx="54" fill="white"/>
</clipPath>
</defs>
</svg>
