<svg width="227" height="58" viewBox="0 0 227 58" fill="none" xmlns="http://www.w3.org/2000/svg">
<path fill-rule="evenodd" clip-rule="evenodd" d="M20.6294 44.1746C25.0492 38.5385 30.6166 30.3501 30.6166 24.8636C30.6166 15.7657 23.7628 8.3905 15.3083 8.3905C6.85376 8.3905 0 15.7657 0 24.8636C0 30.3501 5.56734 38.5385 9.98714 44.1746C12.293 47.115 13.446 48.5852 15.3083 48.5852C17.1706 48.5852 18.3236 47.115 20.6294 44.1746ZM15.3083 31.3529C12.1378 31.3529 9.56768 28.7828 9.56768 25.6123C9.56768 22.4419 12.1378 19.8717 15.3083 19.8717C18.4787 19.8717 21.0489 22.4419 21.0489 25.6123C21.0489 28.7828 18.4787 31.3529 15.3083 31.3529Z" fill="#5660FE"/>
<path d="M66.3623 44.3408C66.3623 44.7803 66.1426 45 65.7031 45H50.8838C49.9398 45 49.126 44.6663 48.4424 43.999C47.7751 43.3154 47.4414 42.5016 47.4414 41.5576V9.5752C47.4414 9.13574 47.6611 8.91602 48.1006 8.91602H50.4443C50.9001 8.91602 51.1279 9.13574 51.1279 9.5752V41.3379H65.7031C66.1426 41.3379 66.3623 41.5576 66.3623 41.9971V44.3408ZM88.6768 30.2051C88.5791 28.4147 87.863 26.901 86.5283 25.6641C85.21 24.4271 83.6393 23.8086 81.8164 23.8086C79.9935 23.8086 78.4229 24.4271 77.1045 25.6641C75.7861 26.901 75.07 28.4147 74.9561 30.2051H88.6768ZM81.8164 45C78.903 45 76.4209 43.9665 74.3701 41.8994C72.3031 39.8324 71.2695 37.3421 71.2695 34.4287V30.6934C71.2695 27.7799 72.3031 25.2897 74.3701 23.2227C76.4209 21.1556 78.903 20.1221 81.8164 20.1221C84.7298 20.1221 87.2201 21.1556 89.2871 23.2227C91.3379 25.2897 92.3633 27.7799 92.3633 30.6934V32.0605C92.3633 32.5651 92.1842 32.9964 91.8262 33.3545C91.4844 33.7126 91.0612 33.8916 90.5566 33.8916H74.9316V34.4287C74.9316 36.333 75.6071 37.9606 76.958 39.3115C78.2926 40.6624 79.9121 41.3379 81.8164 41.3379C84.502 41.3379 86.4958 40.166 87.7979 37.8223C87.9443 37.5781 88.1315 37.4561 88.3594 37.4561C88.457 37.4561 88.5628 37.4805 88.6768 37.5293L90.8008 38.5059C90.9798 38.571 91.1019 38.7012 91.167 38.8965C91.1995 38.9616 91.2158 39.0348 91.2158 39.1162C91.2158 39.2139 91.1914 39.3115 91.1426 39.4092C90.2148 41.1182 88.9209 42.4772 87.2607 43.4863C85.5843 44.4954 83.7695 45 81.8164 45ZM118.413 39.751C118.625 39.8975 118.73 40.0765 118.73 40.2881C118.73 40.4183 118.69 40.5566 118.608 40.7031L117.949 41.6553C117.428 42.404 116.802 43.0469 116.069 43.584C114.784 44.528 113.311 45 111.65 45C109.551 45 107.76 44.2594 106.279 42.7783C104.798 41.2809 104.058 39.4824 104.058 37.3828V23.8086H99.3945C98.9388 23.8086 98.7109 23.5889 98.7109 23.1494V20.8057C98.7109 20.3662 98.9388 20.1465 99.3945 20.1465H104.058V9.52637C104.058 9.08691 104.277 8.86719 104.717 8.86719H107.036C107.492 8.86719 107.72 9.08691 107.72 9.52637V20.1465H117.046C117.485 20.1465 117.705 20.3662 117.705 20.8057V23.1494C117.705 23.5889 117.485 23.8086 117.046 23.8086H107.72V37.3828C107.72 38.4733 108.102 39.4092 108.867 40.1904C109.632 40.9554 110.56 41.3379 111.65 41.3379C112.48 41.3379 113.245 41.0856 113.945 40.5811C114.303 40.3369 114.629 40.0114 114.922 39.6045L115.557 38.6523C115.719 38.4408 115.898 38.335 116.094 38.335C116.208 38.335 116.338 38.3757 116.484 38.457L118.413 39.751ZM127.715 17.7295C127.65 17.8923 127.536 18.0143 127.373 18.0957C127.292 18.1283 127.21 18.1445 127.129 18.1445C127.048 18.1445 126.958 18.1283 126.86 18.0957L124.688 17.1924C124.411 17.0622 124.272 16.8831 124.272 16.6553C124.272 16.5576 124.297 16.4518 124.346 16.3379L127.275 9.33105C127.34 9.15202 127.454 9.02995 127.617 8.96484C127.715 8.93229 127.804 8.91602 127.886 8.91602C127.967 8.91602 128.049 8.93229 128.13 8.96484L130.278 9.86816C130.571 9.9821 130.718 10.153 130.718 10.3809C130.718 10.4948 130.693 10.6087 130.645 10.7227L127.715 17.7295ZM145.244 45C143.519 44.9837 141.973 44.4629 140.605 43.4375C139.222 42.4121 138.286 41.0775 137.798 39.4336L137.749 39.2871C137.733 39.1895 137.725 39.0999 137.725 39.0186C137.725 38.7419 137.887 38.5547 138.213 38.457L140.41 37.7734C140.492 37.7572 140.565 37.749 140.63 37.749C140.744 37.749 140.85 37.7734 140.947 37.8223C141.094 37.9199 141.2 38.0583 141.265 38.2373L141.313 38.3594C141.59 39.2546 142.087 39.9707 142.803 40.5078C143.519 41.0449 144.341 41.3216 145.269 41.3379H147.661C148.573 41.3379 149.403 41.0612 150.151 40.5078C150.9 39.9544 151.396 39.2383 151.641 38.3594C151.755 38.0013 151.812 37.6025 151.812 37.1631C151.812 36.3981 151.543 35.7471 151.006 35.21C150.469 34.6729 149.826 34.4043 149.077 34.4043H143.901C142.127 34.4043 140.605 33.7777 139.336 32.5244C138.083 31.2712 137.456 29.7575 137.456 27.9834C137.456 27.2347 137.57 26.486 137.798 25.7373C138.286 24.0771 139.214 22.7344 140.581 21.709C141.948 20.6836 143.486 20.1628 145.195 20.1465H147.661C149.403 20.1465 150.965 20.6592 152.349 21.6846C153.732 22.71 154.668 24.0527 155.156 25.7129L155.229 25.8105C155.246 25.9082 155.254 25.9977 155.254 26.0791C155.254 26.3558 155.091 26.543 154.766 26.6406L152.568 27.2998C152.454 27.3324 152.357 27.3486 152.275 27.3486C152.015 27.3486 151.828 27.194 151.714 26.8848L151.641 26.7871C151.396 25.8919 150.9 25.1758 150.151 24.6387C149.419 24.0853 148.589 23.8086 147.661 23.8086H145.244C144.333 23.8249 143.511 24.1016 142.778 24.6387C142.062 25.1921 141.574 25.9082 141.313 26.7871C141.2 27.1452 141.143 27.5439 141.143 27.9834C141.143 28.7484 141.411 29.3994 141.948 29.9365C142.485 30.4736 143.136 30.7422 143.901 30.7422H149.077C150.851 30.7422 152.365 31.3688 153.618 32.6221C154.871 33.8753 155.498 35.389 155.498 37.1631C155.498 37.9118 155.384 38.6686 155.156 39.4336C154.668 41.0938 153.732 42.4365 152.349 43.4619C150.965 44.4873 149.403 45 147.661 45H145.244ZM192.095 21.0498C191.655 21.0498 191.436 20.8301 191.436 20.3906V19.2188C191.436 17.3796 190.785 15.8089 189.482 14.5068C188.164 13.221 186.593 12.5781 184.771 12.5781C182.948 12.5781 181.377 13.221 180.059 14.5068C178.757 15.8089 178.105 17.3796 178.105 19.2188V34.6729C178.105 36.512 178.757 38.0827 180.059 39.3848C181.361 40.6868 182.931 41.3379 184.771 41.3379C186.61 41.3379 188.18 40.6868 189.482 39.3848C190.785 38.0827 191.436 36.512 191.436 34.6729V30.7422H183.94C183.485 30.7422 183.257 30.5143 183.257 30.0586V27.7148C183.257 27.2754 183.485 27.0557 183.94 27.0557H191.655C192.599 27.0557 193.405 27.3893 194.072 28.0566C194.756 28.7402 195.098 29.5622 195.098 30.5225V34.6729C195.098 37.5212 194.089 39.9544 192.07 41.9727C190.052 43.9909 187.619 45 184.771 45C181.938 45 179.505 43.9909 177.471 41.9727C175.452 39.9544 174.443 37.5212 174.443 34.6729V19.2188C174.443 16.3704 175.452 13.9372 177.471 11.9189C179.505 9.90072 181.938 8.8916 184.771 8.8916C187.603 8.8916 190.036 9.90072 192.07 11.9189C194.089 13.9372 195.098 16.3704 195.098 19.2188V20.3906C195.098 20.8301 194.878 21.0498 194.438 21.0498H192.095ZM211.992 23.8086C210.088 23.8086 208.46 24.484 207.109 25.835C205.775 27.1696 205.107 28.7891 205.107 30.6934V34.4531C205.107 36.3411 205.775 37.9606 207.109 39.3115C208.46 40.6624 210.088 41.3379 211.992 41.3379C213.896 41.3379 215.524 40.6624 216.875 39.3115C218.21 37.9606 218.877 36.3411 218.877 34.4531V30.6934C218.877 28.7891 218.21 27.1696 216.875 25.835C215.524 24.484 213.896 23.8086 211.992 23.8086ZM211.992 45C209.079 45 206.589 43.9665 204.521 41.8994C202.471 39.8324 201.445 37.3503 201.445 34.4531V30.6934C201.445 27.7799 202.471 25.2979 204.521 23.2471C206.589 21.18 209.079 20.1465 211.992 20.1465C214.906 20.1465 217.396 21.18 219.463 23.2471C221.514 25.2979 222.539 27.7799 222.539 30.6934V34.4531C222.539 37.3503 221.514 39.8324 219.463 41.8994C217.396 43.9665 214.906 45 211.992 45Z" fill="#5660FE"/>
</svg>
