<svg width="13" height="13" viewBox="0 0 13 13" fill="none" xmlns="http://www.w3.org/2000/svg">
<path d="M6.72111 1.77429C6.5743 1.75558 6.42574 1.75558 6.27893 1.77429C5.94412 1.81696 5.6652 1.97672 5.39039 2.19741C5.12613 2.40964 4.82954 2.70889 4.46666 3.07505L3.50315 4.04719C3.34521 4.20655 3.34635 4.46377 3.50571 4.62171C3.66507 4.77965 3.92229 4.7785 4.08023 4.61915L5.02669 3.66421C5.4108 3.27665 5.67516 3.0108 5.89915 2.83091C5.97195 2.77245 6.03603 2.72684 6.09377 2.69142L6.09377 10.8332C6.09377 11.0575 6.27565 11.2394 6.50002 11.2394C6.72439 11.2394 6.90627 11.0575 6.90627 10.8332L6.90627 2.69142C6.96401 2.72684 7.02809 2.77245 7.10089 2.83091C7.32488 3.0108 7.58924 3.27665 7.97335 3.66421L8.91981 4.61915C9.07775 4.77851 9.33497 4.77965 9.49433 4.62171C9.65369 4.46377 9.65484 4.20655 9.49689 4.04719L8.53338 3.07504C8.17049 2.70889 7.87391 2.40964 7.60965 2.19741C7.33485 1.97672 7.05592 1.81696 6.72111 1.77429Z" fill="#5660FE"/>
</svg>
