<svg width="13" height="13" viewBox="0 0 13 13" fill="none" xmlns="http://www.w3.org/2000/svg">
<path d="M8.2363 2.22745C8.4552 2.00771 8.69815 1.82555 9.00862 1.77609C9.07476 1.76555 9.14148 1.76025 9.20832 1.76025C9.27515 1.76025 9.34187 1.76555 9.40801 1.77609C9.71848 1.82555 9.96144 2.00771 10.1803 2.22745C10.3936 2.44158 10.6319 2.74216 10.9208 3.10641L11.6933 4.08077C11.8327 4.25658 11.8032 4.5121 11.6274 4.6515C11.4516 4.7909 11.1961 4.76138 11.0567 4.58557L10.2995 3.63063C9.99712 3.24928 9.78934 2.9882 9.61457 2.81083L9.61457 9.74984C9.61457 9.9742 9.43268 10.1561 9.20832 10.1561C8.98395 10.1561 8.80207 9.9742 8.80207 9.74984L8.80207 2.81083C8.62729 2.9882 8.41951 3.24928 8.11715 3.63063L7.35998 4.58557C7.22058 4.76138 6.96506 4.7909 6.78925 4.6515C6.61344 4.5121 6.58393 4.25658 6.72332 4.08077L7.49588 3.10641C7.78469 2.74215 8.023 2.44158 8.2363 2.22745Z" fill="white"/>
<path d="M4.1979 2.70817C4.1979 2.48381 4.01602 2.30192 3.79165 2.30192C3.56729 2.30192 3.3854 2.48381 3.3854 2.70817L3.3854 9.64718C3.21063 9.46981 3.00285 9.20873 2.70048 8.82738L1.94331 7.87244C1.80392 7.69663 1.54839 7.66711 1.37259 7.80651C1.19678 7.94591 1.16726 8.20143 1.30666 8.37724L2.07921 9.35159C2.36802 9.71585 2.60633 10.0164 2.81964 10.2306C3.03853 10.4503 3.28149 10.6325 3.59195 10.6819C3.6581 10.6925 3.72482 10.6978 3.79165 10.6978C3.85849 10.6978 3.92521 10.6925 3.99135 10.6819C4.30182 10.6325 4.54477 10.4503 4.76367 10.2306C4.97697 10.0164 5.21529 9.71585 5.50409 9.35158L6.27665 8.37724C6.41604 8.20143 6.38653 7.94591 6.21072 7.80651C6.03491 7.66711 5.77939 7.69663 5.63999 7.87244L4.88282 8.82738C4.58046 9.20873 4.37267 9.46981 4.1979 9.64718L4.1979 2.70817Z" fill="white"/>
</svg>
